<svg width="20" height="21" viewBox="0 0 20 21" fill="none" xmlns="http://www.w3.org/2000/svg">
<path d="M17.5 5.28083C14.725 5.00583 11.9333 4.86417 9.15 4.86417C7.5 4.86417 5.85 4.9475 4.2 5.11417L2.5 5.28083" stroke="#FF0000" stroke-width="1.5" stroke-linecap="round" stroke-linejoin="round"/>
<path d="M7.08337 4.43917L7.26671 3.34751C7.40004 2.55584 7.50004 1.96417 8.90837 1.96417H11.0917C12.5 1.96417 12.6084 2.58917 12.7334 3.35584L12.9167 4.43917" stroke="#FF0000" stroke-width="1.5" stroke-linecap="round" stroke-linejoin="round"/>
<path d="M15.7083 7.91418L15.1666 16.3058C15.075 17.6142 15 18.6308 12.675 18.6308H7.32496C4.99996 18.6308 4.92496 17.6142 4.83329 16.3058L4.29163 7.91418" stroke="#FF0000" stroke-width="1.5" stroke-linecap="round" stroke-linejoin="round"/>
<path d="M8.60803 14.0475H11.383" stroke="#FF0000" stroke-width="1.5" stroke-linecap="round" stroke-linejoin="round"/>
<path d="M7.91663 10.7142H12.0833" stroke="#FF0000" stroke-width="1.5" stroke-linecap="round" stroke-linejoin="round"/>
</svg>
